# xmcd
#
# Track frame offsets: 
#        150
#        13327
#        25808
#        49422
#        65722
#        85134
#        107502
#        125568
#        149664
#        170963
#
# Disc length: 2457 seconds
#
# Revision: 3
# Processed by: cddbd v1.5.2PL0 Copyright (c) Steve Scherf et al.
# Submitted via: ExactAudioCopyFreeDBPlugin 1.0
#
DISCID=9709970a
DTITLE=The Oscar Peterson Trio - We Get Requests
DYEAR=2004
DGENRE=Jazz
TTITLE0=Quiet Nights Of Quiet Stars (Corcovado)
TTITLE1=The Days Of Wine And Roses
TTITLE2=My One And Only Love
TTITLE3=People
TTITLE4=Have You Met Miss Jones?
TTITLE5=You Look Good To Me
TTITLE6=The Girl From Ipanema
TTITLE7=D. and E.
TTITLE8=Time And Again
TTITLE9=Goodbye J.D.
EXTD=YEAR: 2004
EXTT0=
EXTT1=
EXTT2=
EXTT3=
EXTT4=
EXTT5=
EXTT6=
EXTT7=
EXTT8=
EXTT9=
PLAYORDER=
